# xmcd CD database file
#
# Track frame offsets:
#	150
#	8710
#	17097
#	26460
#	42153
#	57244
#	68027
#	96117
#	114630
#	129125
#	144440
#	162362
#	173622
#	193410
#	202935
#	221010
#	233202
#	243407
#
# Disc length: 3555 seconds
#
# Revision: 16
# Processed by: cddbd v1.5.2PL0 Copyright (c) Steve Scherf et al.
# Submitted via: CDex 1.70beta2
#
DISCID=ef0de112
DTITLE=Johnny Cash - At San Quentin (The Complete 1969 Concert)
DYEAR=2000
DGENRE=Country
TTITLE0=Big River
TTITLE1=I Still Miss Someone
TTITLE2=Wreck Of The Old 97
TTITLE3=I Walk The Line
TTITLE4=Darlin' Companion
TTITLE5=I Don't Know Where I'm Bound
TTITLE6=Starkville City Jail
TTITLE7=San Quentin
TTITLE8=San Quentin (A Second Time)
TTITLE9=Wanted Man
TTITLE10=A Boy Named Sue
TTITLE11=(There'll Be) Peace In The Valley
TTITLE12=Folsom Prison Blues
TTITLE13=Ring Of Fire
TTITLE14=He Turned The Water Into Wine
TTITLE15=Daddy Sang Bass
TTITLE16=The Old Account Was Settled Long Ago
TTITLE17=Closing Medley - Folsom Prison Blues, I Walk The Line, Ring Of Fire, The Rebel-Johnny Yuma
EXTD=Originally released as Columbia Records Lp CS-9827, 4 June 1969.*Also contains 9 previously un-released "bonus-tracks"\nReleasedin 1999 as Standard CD - upc 5099749817623\nReleased 2004 in Germany as Vinyl-alike CD - upc 5099749817654 (Sony Music Me
EXTD=dia 4981765 - Germany) YEAR: 2000
EXTT0=Previously unrealesed bonus track
EXTT1=Previously unrealesed bonus track
EXTT2=
EXTT3=
EXTT4=
EXTT5=Previously unrealesed bonus track
EXTT6=
EXTT7=
EXTT8=
EXTT9=
EXTT10=
EXTT11=
EXTT12=Previously unrealesed bonus track
EXTT13=Previously unrealesed bonus track
EXTT14=Previously unrealesed bonus track
EXTT15=Previously unrealesed bonus track
EXTT16=Previously unrealesed bonus track
EXTT17=Previously unrealesed bonus track
PLAYORDER=
